<svg xmlns="http://www.w3.org/2000/svg" xmlns:xlink="http://www.w3.org/1999/xlink" style="vertical-align:-3.005ex" width="137.46ex" height="6.884ex" viewBox="0 -1670.4 59183.8 2964.1"><defs><path id="k" stroke-width="1" d="M34 1438q0 8 3 10t13 2h21q2-2 28-27t45-43 54-61 62-81 63-101 62-124 55-149 45-176 29-203 12-234q0-117-7-198-47-572-357-913-23-25-43-44t-33-32-15-13H56q-13 0-17 2t-5 10q54 54 106 124Q428-430 428 251q0 202-26 377t-64 294-93 224-100 163-99 116l-4 4q-2 2-3 4t-3 3l-2 2z"/><path id="a" stroke-width="1" d="M231 637q-27 0-32 1t-5 11q0 27 11 33 1 1 130 1 259 0 273-2 63-10 105-45t43-92q0-64-58-115t-133-69l-10-3q64-9 105-46t42-92q0-73-72-141T453 1q-7-1-211-1Q42 0 39 2q-4 3-4 8 0 7 2 14 5 19 10 21 4 1 15 1h6q27 0 60 3 14 3 19 12 3 4 72 278t69 289q0 7-57 9zm418-93q0 30-15 56t-49 34q-7 2-92 3h-42q-22 0-35-1h-13q-15-1-19-10-2-4-32-120 0-3-1-6l-31-126h81q81 0 93 2 60 10 107 58t48 110zm-54-315q0 44-23 73t-60 34q-6 1-83 1-118 0-119-1 0-2-17-73t-35-141l-18-70q0-4 12-4t81-2q89 0 96 1 62 7 114 58t52 124z"/><path id="c" stroke-width="1" d="M26 385q-7 7-7 10 0 4 3 16t5 14q2 5 9 5t51 1h53l19 80q3 11 7 29t7 26 6 20 8 17 10 12 14 9 18 2q18-1 25-11t7-19q0-7-9-47t-20-79l-10-37q0-2 50-2h51q7-7 7-11 0-22-13-35H210l-36-145Q135 80 135 68q0-42 27-42 35 0 68 34t53 84q2 6 5 7t15 2h4q15 0 15-8 0-3-3-12-5-16-18-38t-34-47-51-42-61-17q-30 0-57 15T59 56q-2 8-2 27v18l35 140q35 141 36 142 0 2-51 2H26z"/><path id="d" stroke-width="1" d="M60 749l4 1h22l28-24q94-85 137-212t43-264q0-68-10-131T261 12t-37-88-38-67-41-51-32-33-23-19l-4-4H63q-3 0-5 3t-3 9q1 1 11 13Q221-64 221 250T66 725q-10 12-11 13 0 8 5 11z"/><path id="e" stroke-width="1" d="M56 347q0 13 14 20h637q15-8 15-20 0-11-14-19l-318-1H72q-16 5-16 20zm0-194q0 15 16 20h636q14-10 14-20 0-13-15-20H70q-14 7-14 20z"/><path id="f" stroke-width="1" d="M60 948q3 2 605 2h602l58-135q59-138 63-146h-40l-7 14q-21 41-56 78-50 48-111 77t-141 43-151 17-183 4H251l8-11q463-633 465-639 1-2 0-6-3-3-264-302L196-356q0-1 211-1h141q89 0 128-1 136 0 220 5t167 21 141 49 103 87q21 26 41 72h40q0-1-7-21t-25-65-31-84l-58-155-601-1q-602 0-605 2-6 2-6 9 0 2 2 6l533 610q0 1-33 45T452 366 322 544L56 909l-1 15q0 21 5 24z"/><path id="g" stroke-width="1" d="M184 600q0 24 19 42t44 19q18 0 30-12t13-30q0-23-20-42t-44-20q-15 0-28 10t-14 33zM21 287q0 8 9 31t24 51 44 51 60 22q39 0 65-23t27-62q0-17-14-56t-40-105-42-113q-5-22-5-32 0-25 17-25 9 0 19 3t23 14 27 35 25 59q3 12 5 14t17 2q20 0 20-10 0-8-9-31t-25-51-45-50-62-22q-32 0-59 21T74 74q0 17 5 32t43 114q38 101 44 121t7 39q0 24-17 24h-2q-30 0-55-33t-38-84q-1-1-2-3t-1-3-2-2-3-1-4 0-8 0H27q-6 6-6 9z"/><path id="h" stroke-width="1" d="M96 585q56 81 153 81 48 0 96-26t78-92q37-83 37-228 0-155-43-237-20-42-55-67t-61-31-51-7q-26 0-52 6t-61 32-55 67q-43 82-43 237 0 174 57 265zm225 12q-30 32-71 32-42 0-72-32-25-26-33-72t-8-192q0-158 8-208t36-79q28-30 69-30 40 0 68 30 29 30 36 84t8 203q0 145-8 191t-33 73z"/><path id="i" stroke-width="1" d="M21 287q1 6 3 16t12 38 20 47 33 37 46 17q36 0 60-18t30-34 6-21q0-2 1-2l11 11q61 64 139 64 54 0 87-27t34-79-38-157-38-127q0-26 17-26 6 0 9 1 29 5 52 38t35 80q2 8 20 8 20 0 20-8 0-1-4-15-8-29-22-57t-46-56-69-27q-47 0-68 27t-21 56q0 19 36 120t37 152q0 59-44 59h-5q-86 0-145-101l-7-12-33-134Q156 26 151 16q-13-27-43-27-13 0-21 6T76 7t-2 10q0 13 38 163t40 163q1 5 1 23 0 39-24 39-38 0-63-100-6-20-6-21-2-6-19-6H27q-6 6-6 9z"/><path id="j" stroke-width="1" d="M701-940q0-3-6-9h-31q-2 2-28 27t-45 43-54 61-62 81-63 101-62 125-55 149-45 176-29 203-12 234q0 711 364 1110 23 25 43 44t33 32 15 13h31q6-6 6-9 0-5-20-26t-52-59-72-95-81-143-76-191-60-252-32-316q-2-38-2-109 0-389 94-680t290-494q11-12 11-16z"/><path id="b" stroke-width="1" d="M94 250q0 69 10 131t23 107 37 88 38 67 42 52 33 34 25 21h17q14 0 14-9 0-3-17-21t-41-53-49-86-42-138-17-193 17-192 41-139 49-86 42-53 17-21q0-9-15-9h-16l-28 24q-94 85-137 212T94 250z"/><path id="l" stroke-width="1" d="M287 628q0 7-57 9-24 0-31 1t-7 10q0 1 2 11 6 20 9 22t194 2q190-1 203-3 64-11 107-49t44-101q0-77-66-141-69-68-178-86-7-1-105-2h-95l-30-119Q247 66 247 59q0-4 1-5t7-4 17-2 33-2h31q6-9 6-11 0-16-7-30-5-5-16-5-3 0-37 1T182 2H87Q54 2 51 1 33 1 33 11q0 2 3 14 4 16 8 18t23 3q27 0 60 3 14 3 19 12 3 4 72 278t69 289zm358-74q0 13-2 21t-9 22-25 22-49 16q-7 1-80 2h-35q-18 0-29-1t-12 0q-13-1-18-9-2-6-19-77t-35-138-18-68q0-2 81-2h35q112 0 160 50 27 27 41 79t14 83z"/><path id="m" stroke-width="1" d="M213 578l-13-5q-14-5-40-10t-58-7H83v46h19q47 2 87 15t56 24 28 22q2 3 12 3 9 0 17-6V361l1-300q7-7 12-9t24-4 62-2h26V0h-11q-21 3-159 3-136 0-157-3H88v46h64q16 0 25 1t16 3 8 2 6 5 6 4v517z"/><path id="n" stroke-width="1" d="M84 237v13l14 20h581q15-8 15-20t-15-20H98q-14 7-14 20z"/><path id="o" stroke-width="1" d="M56 237v13l14 20h299v150l1 150q10 13 19 13 13 0 20-15V270h298q15-8 15-20t-15-20H409V-68q-8-14-18-14h-4q-12 0-18 14v298H70q-14 7-14 20z"/><path id="p" stroke-width="1" d="M78 60q0 24 17 42t43 18q24 0 42-16t19-43q0-25-17-43T139 0 96 17 78 60z"/><path id="q" stroke-width="1" d="M78 35v25l16 43 43 18q28 0 50-25t23-88q0-35-9-68t-21-57-26-41-24-27-13-9q-4 0-13 9t-9 13q0 4 11 16t25 30 26 50 16 73V9l-1-1q-2-1-5-2t-6-3-9-2-12-1q-27 0-44 17z"/><path id="r" stroke-width="1" d="M84 250q0 122 82 200t194 89h17q16 0 42 1t50 0h99q15-8 15-20 0-9-13-19l-104-1q-111-1-137-6-49-12-87-36t-59-49-36-55-18-48-5-34v-2h444q15-8 15-20t-15-20H124v-2q0-21 10-51t33-65 64-64 97-41q27-6 138-7h104q13-10 13-20 0-12-15-20H446q-18 0-29-1-155 0-245 86-88 82-88 205z"/><path id="s" stroke-width="1" d="M118-250V750h137v-40h-97v-920h97v-40H118z"/><path id="t" stroke-width="1" d="M22 710v40h137V-250H22v40h97v920H22z"/></defs><g fill="currentColor" stroke="currentColor" stroke-width="0" transform="scale(1 -1)"><use xlink:href="#a"/><use x="759" xlink:href="#b"/><use x="1149" xlink:href="#c"/><use x="1510" xlink:href="#d"/><use x="2177" xlink:href="#e"/><g transform="translate(3234)"><use xlink:href="#f"/><g transform="matrix(.707 0 0 .707 147 -1090)"><use xlink:href="#g"/><use x="345" xlink:href="#e"/><use x="1124" xlink:href="#h"/></g><use x="721" y="1627" transform="scale(.707)" xlink:href="#i"/></g><g transform="translate(4845)"><use y="-1" xlink:href="#j"/><g transform="translate(736)"><use y="676" xlink:href="#i"/><use x="127" y="-686" xlink:href="#g"/></g><use x="1337" y="-1" xlink:href="#k"/></g><use x="6918" xlink:href="#l"/><use x="7670" xlink:href="#g"/><use x="8015" xlink:href="#b"/><use x="8405" xlink:href="#m"/><use x="9127" xlink:href="#n"/><use x="10128" xlink:href="#c"/><g transform="translate(10490)"><use xlink:href="#d"/><g transform="matrix(.707 0 0 .707 389 412)"><use xlink:href="#i"/><use x="600" xlink:href="#n"/><use x="1379" xlink:href="#g"/></g></g><g transform="translate(12199)"><use xlink:href="#c"/><use x="511" y="583" transform="scale(.707)" xlink:href="#g"/></g><use x="13182" xlink:href="#e"/><g transform="translate(14238)"><use y="-1" xlink:href="#j"/><g transform="translate(736)"><use y="676" xlink:href="#i"/><use x="50" y="-686" xlink:href="#h"/></g><use x="1337" y="-1" xlink:href="#k"/></g><use x="16312" xlink:href="#l"/><use x="17063" xlink:href="#h"/><use x="17564" xlink:href="#b"/><use x="17953" xlink:href="#m"/><use x="18676" xlink:href="#n"/><use x="19677" xlink:href="#c"/><g transform="translate(20038)"><use xlink:href="#d"/><use x="550" y="583" transform="scale(.707)" xlink:href="#i"/></g><g transform="translate(20952)"><use xlink:href="#c"/><use x="511" y="583" transform="scale(.707)" xlink:href="#h"/></g><use x="21990" xlink:href="#o"/><g transform="translate(22991)"><use y="-1" xlink:href="#j"/><g transform="translate(736)"><use y="676" xlink:href="#i"/><use x="50" y="-686" xlink:href="#m"/></g><use x="1337" y="-1" xlink:href="#k"/></g><use x="25064" xlink:href="#l"/><use x="25816" xlink:href="#m"/><use x="26316" xlink:href="#b"/><use x="26706" xlink:href="#m"/><use x="27429" xlink:href="#n"/><use x="28429" xlink:href="#c"/><g transform="translate(28791)"><use xlink:href="#d"/><g transform="matrix(.707 0 0 .707 389 412)"><use xlink:href="#i"/><use x="600" xlink:href="#n"/><use x="1379" xlink:href="#m"/></g></g><g transform="translate(30609)"><use xlink:href="#c"/><use x="511" y="583" transform="scale(.707)" xlink:href="#m"/></g><use x="31425" xlink:href="#o"/><use x="32203" xlink:href="#p"/><use x="32648" xlink:href="#p"/><use x="33094" xlink:href="#p"/><use x="33539" xlink:href="#o"/><g transform="translate(34317)"><use y="-1" xlink:href="#j"/><g transform="translate(736)"><use x="861" y="676" xlink:href="#i"/><g transform="translate(0 -686)"><use xlink:href="#i"/><use x="822" xlink:href="#n"/><use x="1823" xlink:href="#m"/></g></g><use x="3060" y="-1" xlink:href="#k"/></g><use x="38114" xlink:href="#l"/><use x="38866" xlink:href="#i"/><use x="39688" xlink:href="#n"/><use x="40689" xlink:href="#m"/><use x="41190" xlink:href="#b"/><use x="41579" xlink:href="#m"/><use x="42302" xlink:href="#n"/><use x="43303" xlink:href="#c"/><g transform="translate(43664)"><use xlink:href="#d"/><use x="550" y="583" transform="scale(.707)" xlink:href="#m"/></g><g transform="translate(44507)"><use xlink:href="#c"/><g transform="matrix(.707 0 0 .707 361 412)"><use xlink:href="#i"/><use x="600" xlink:href="#n"/><use x="1379" xlink:href="#m"/></g></g><use x="46520" xlink:href="#o"/><g transform="translate(47521)"><use y="-1" xlink:href="#j"/><g transform="translate(736)"><use y="676" xlink:href="#i"/><use y="-686" xlink:href="#i"/></g><use x="1337" y="-1" xlink:href="#k"/></g><use x="49594" xlink:href="#l"/><use x="50346" xlink:href="#i"/><use x="50946" xlink:href="#b"/><use x="51336" xlink:href="#m"/><use x="52059" xlink:href="#n"/><use x="53059" xlink:href="#c"/><g transform="translate(53421)"><use xlink:href="#d"/><use x="550" y="583" transform="scale(.707)" xlink:href="#h"/></g><g transform="translate(54264)"><use xlink:href="#c"/><use x="511" y="583" transform="scale(.707)" xlink:href="#i"/></g><use x="55150" xlink:href="#q"/><use x="55596" xlink:href="#c"/><use x="56235" xlink:href="#r"/><use x="57180" xlink:href="#s"/><use x="57459" xlink:href="#h"/><use x="57959" xlink:href="#q"/><use x="58404" xlink:href="#m"/><use x="58905" xlink:href="#t"/></g></svg>